<svg width="89" height="22" viewBox="0 0 89 22" fill="none" xmlns="http://www.w3.org/2000/svg">
<path d="M78.1523 19.8675L87.8164 0.295898" stroke="black" stroke-width="1.33708"/>
<path d="M10.9784 21.1217L0.589844 1.9248" stroke="black" stroke-width="1.33708"/>
<path d="M30.2634 7.68634L29.0861 7.70834C29.0101 7.37099 28.8827 7.07577 28.7039 6.82267C28.5282 6.56951 28.3153 6.3582 28.0652 6.18874C27.8181 6.01606 27.5451 5.8882 27.2459 5.80514C26.9468 5.72208 26.6358 5.68357 26.313 5.6896C25.7243 5.7006 25.1938 5.85931 24.7214 6.16574C24.2523 6.47211 23.8823 6.91751 23.6114 7.50195C23.3437 8.08632 23.2177 8.79944 23.2335 9.6413C23.2492 10.4832 23.4017 11.1911 23.6911 11.765C23.9836 12.339 24.37 12.7702 24.8502 13.0588C25.3337 13.3474 25.8698 13.4862 26.4584 13.4752C26.7812 13.4692 27.0906 13.4191 27.3864 13.3249C27.6823 13.2307 27.9504 13.0943 28.1908 12.9157C28.4344 12.7338 28.6392 12.5132 28.8053 12.2536C28.9746 11.9908 29.0908 11.6911 29.1542 11.3543L30.3315 11.3323C30.2522 11.8308 30.0991 12.2785 29.8722 12.6753C29.6454 13.0721 29.3604 13.4115 29.0175 13.6933C28.6744 13.972 28.2874 14.1866 27.8565 14.3371C27.4287 14.4876 26.9696 14.5674 26.479 14.5766C25.6498 14.5921 24.9086 14.4033 24.2554 14.0103C23.6022 13.6172 23.0835 13.0507 22.6992 12.3107C22.315 11.5707 22.1133 10.688 22.0941 9.66259C22.075 8.63717 22.2435 7.74754 22.5999 6.99371C22.9562 6.23988 23.4534 5.65438 24.0915 5.23721C24.7295 4.82004 25.4632 4.60371 26.2924 4.58822C26.7829 4.57905 27.2447 4.64166 27.6778 4.77604C28.1141 4.91035 28.5088 5.11193 28.8621 5.38077C29.2154 5.64645 29.5127 5.97332 29.7543 6.36139C29.9957 6.74629 30.1655 7.18794 30.2634 7.68634ZM32.2908 14.335L32.1091 4.6125L33.2865 4.59051L33.4486 13.2686L37.9681 13.1842L37.9876 14.2286L32.2908 14.335ZM40.8062 4.45L40.9879 14.1725L39.8106 14.1945L39.6289 4.472L40.8062 4.45ZM51.0472 7.29799L49.8698 7.31999C49.7939 6.98265 49.6665 6.68743 49.4876 6.43432C49.3119 6.18116 49.099 5.96985 48.8489 5.8004C48.6019 5.62772 48.3288 5.49985 48.0297 5.41679C47.7305 5.33373 47.4195 5.29522 47.0967 5.30125C46.508 5.31225 45.9775 5.47096 45.5052 5.77739C45.036 6.08376 44.666 6.52916 44.3952 7.1136C44.1275 7.69798 44.0015 8.41109 44.0172 9.25295C44.033 10.0948 44.1855 10.8027 44.4748 11.3767C44.7673 11.9506 45.1537 12.3819 45.634 12.6705C46.1175 12.9591 46.6535 13.0979 47.2422 13.0869C47.565 13.0808 47.8743 13.0307 48.1702 12.9365C48.466 12.8424 48.7342 12.706 48.9746 12.5273C49.2182 12.3455 49.423 12.1248 49.5891 11.8653C49.7583 11.6025 49.8746 11.3027 49.938 10.9659L51.1153 10.9439C51.036 11.4425 50.8829 11.8902 50.656 12.287C50.4291 12.6838 50.1442 13.0231 49.8012 13.305C49.4582 13.5837 49.0712 13.7983 48.6403 13.9488C48.2125 14.0993 47.7533 14.1791 47.2628 14.1882C46.4336 14.2037 45.6924 14.015 45.0392 13.6219C44.386 13.2289 43.8672 12.6624 43.483 11.9224C43.0987 11.1824 42.897 10.2997 42.8779 9.27424C42.8587 8.24882 43.0273 7.3592 43.3836 6.60536C43.74 5.85153 44.2372 5.26603 44.8752 4.84887C45.5133 4.4317 46.2469 4.21537 47.0761 4.19987C47.5667 4.19071 48.0285 4.25331 48.4616 4.38769C48.8978 4.52201 49.2926 4.72359 49.6459 4.99243C49.9991 5.2581 50.2965 5.58497 50.538 5.97304C50.7795 6.35795 50.9492 6.79959 51.0472 7.29799ZM53.0746 13.9467L52.8929 4.22416L54.0702 4.20216L54.1604 9.02544L54.2743 9.02331L58.5517 4.11842L60.0898 4.08968L56.0891 8.55249L60.2715 13.8122L58.8473 13.8388L55.3828 9.38251L54.193 10.7724L54.2519 13.9247L53.0746 13.9467ZM66.8007 10.4539L66.4364 5.27193L66.3802 3.69496L67.8507 3.66748L67.8534 5.24546L67.683 10.4374L66.8007 10.4539ZM67.3035 13.7477C67.0629 13.7522 66.8564 13.6758 66.6841 13.5185C66.5207 13.3611 66.4365 13.1487 66.4315 12.8813C66.4265 12.614 66.5071 12.3985 66.6735 12.2349C66.8396 12.0624 67.0386 11.974 67.2703 11.9697C67.502 11.9653 67.7041 12.0463 67.8766 12.2124C68.049 12.3697 68.1376 12.582 68.1426 12.8494C68.1476 13.1167 68.067 13.3322 67.9006 13.4958C67.7343 13.6594 67.5353 13.7433 67.3035 13.7477Z" fill="black"/>
</svg>
